<svg width="449" height="449" viewBox="0 0 449 449" fill="none" xmlns="http://www.w3.org/2000/svg">
<path d="M56.125 149.667H392.875C397.837 149.667 402.595 147.696 406.104 144.187C409.612 140.679 411.583 135.92 411.583 130.958C411.583 125.997 409.612 121.238 406.104 117.73C402.595 114.221 397.837 112.25 392.875 112.25H56.125C51.1632 112.25 46.4047 114.221 42.8962 117.73C39.3877 121.238 37.4167 125.997 37.4167 130.958C37.4167 135.92 39.3877 140.679 42.8962 144.187C46.4047 147.696 51.1632 149.667 56.125 149.667V149.667ZM392.875 299.333H56.125C51.1632 299.333 46.4047 301.304 42.8962 304.813C39.3877 308.321 37.4167 313.08 37.4167 318.042C37.4167 323.003 39.3877 327.762 42.8962 331.27C46.4047 334.779 51.1632 336.75 56.125 336.75H392.875C397.837 336.75 402.595 334.779 406.104 331.27C409.612 327.762 411.583 323.003 411.583 318.042C411.583 313.08 409.612 308.321 406.104 304.813C402.595 301.304 397.837 299.333 392.875 299.333ZM392.875 205.792H56.125C51.1632 205.792 46.4047 207.763 42.8962 211.271C39.3877 214.78 37.4167 219.538 37.4167 224.5C37.4167 229.462 39.3877 234.22 42.8962 237.729C46.4047 241.237 51.1632 243.208 56.125 243.208H392.875C397.837 243.208 402.595 241.237 406.104 237.729C409.612 234.22 411.583 229.462 411.583 224.5C411.583 219.538 409.612 214.78 406.104 211.271C402.595 207.763 397.837 205.792 392.875 205.792Z" fill="white"/>
</svg>
