<svg width="48" height="48" viewBox="0 0 48 48" fill="none" xmlns="http://www.w3.org/2000/svg">
<path fill-rule="evenodd" clip-rule="evenodd" d="M4 19H15V43H4V19ZM6 21V41H13V21H6Z" fill="white"/>
<path fill-rule="evenodd" clip-rule="evenodd" d="M32.2007 8.7691C32.9559 6.75517 30.4347 5.13173 28.9138 6.65264L15 20.5664V41.0002H33.4172C35.672 41.0002 37.6478 39.4911 38.241 37.3158L41.6573 24.7896C42.1778 22.8811 40.7411 21.0002 38.763 21.0002H29.057C28.729 21.0002 28.4219 20.8394 28.2351 20.5698C28.0483 20.3002 28.0055 19.9562 28.1207 19.6491L32.2007 8.7691ZM13.6883 19.0498L27.4996 5.23843C30.5414 2.19663 35.5838 5.44346 34.0733 9.47135L30.5 19.0002H38.763C42.0599 19.0002 44.4543 22.1351 43.5868 25.3158L40.1706 37.842C39.34 40.8875 36.5739 43.0002 33.4172 43.0002H14C13.4477 43.0002 13 42.5525 13 42.0002V20.0002C13 19.5568 13.2886 19.1807 13.6883 19.0498Z" fill="white"/>
</svg>
