<svg width="47" height="41" viewBox="0 0 47 41" fill="none" xmlns="http://www.w3.org/2000/svg">
<path d="M10 5H38V30.6667H17.4667L10 38V5Z" stroke="white" stroke-width="2" stroke-linejoin="round"/>
<path d="M22 11C22 9.89543 22.8954 9 24 9V9C25.1046 9 26 9.89543 26 11V19C26 20.1046 25.1046 21 24 21V21C22.8954 21 22 20.1046 22 19V11Z" fill="white"/>
<path d="M22 25C22 23.8954 22.8954 23 24 23V23C25.1046 23 26 23.8954 26 25V25C26 26.1046 25.1046 27 24 27V27C22.8954 27 22 26.1046 22 25V25Z" fill="white"/>
</svg>
